# xmcd
#
# Track frame offsets: 
#        150
#        17350
#        43228
#        58373
#        77767
#        98507
#        120077
#        140141
#        161758
#        180773
#        203266
#        218378
#        237053
#        254143
#
# Disc length: 3591 seconds
#
# Revision: 0
# Processed by: cddbd v1.5.1PL0 Copyright (c) Steve Scherf et al.
# Submitted via: ExactAudioCopy v0.95b2
#
DISCID=ad0e050e
DTITLE=Various Artist - reflections
DYEAR=1900
DGENRE=
TTITLE0=All by myself
TTITLE1=The sound of silence
TTITLE2=In my life
TTITLE3=Don't it make my brown eyes blue
TTITLE4=All out of love
TTITLE5=Help me make it through the night
TTITLE6=If you leave me now
TTITLE7=Honesty
TTITLE8=I'm not in love
TTITLE9=I'd really love to see you tonight
TTITLE10=If
TTITLE11=Don't cry out loud
TTITLE12=So far away
TTITLE13=Rainy days and mondays
EXTD=
EXTT0=
EXTT1=
EXTT2=
EXTT3=
EXTT4=
EXTT5=
EXTT6=
EXTT7=
EXTT8=
EXTT9=
EXTT10=
EXTT11=
EXTT12=
EXTT13=
PLAYORDER=
